<svg width="231" height="61" viewBox="0 0 231 61" fill="none" xmlns="http://www.w3.org/2000/svg">
<path d="M47.5341 26.1234C47.5341 27.9367 47.1146 29.5875 46.2757 31.076C45.4367 32.5374 44.1918 33.7011 42.541 34.5671C40.9172 35.4332 38.9416 35.8662 36.6141 35.8662H33.0418V45H24.0297V16.2589H36.6141C40.1323 16.2589 42.8251 17.152 44.6925 18.9381C46.5869 20.7243 47.5341 23.1194 47.5341 26.1234ZM35.5993 28.7621C37.4666 28.7621 38.4003 27.8825 38.4003 26.1234C38.4003 24.3643 37.4666 23.4848 35.5993 23.4848H33.0418V28.7621H35.5993ZM64.8443 45L59.4452 34.6889H59.4046V45H50.3926V16.2589H63.7889C66.1163 16.2589 68.1054 16.6784 69.7563 17.5173C71.4071 18.3292 72.6385 19.4523 73.4504 20.8867C74.2894 22.294 74.7089 23.8907 74.7089 25.6769C74.7089 27.5984 74.1676 29.3033 73.0851 30.7918C72.0296 32.2803 70.5005 33.3493 68.4979 33.9988L74.7494 45H64.8443ZM59.4046 28.6809H62.977C63.843 28.6809 64.4925 28.4914 64.9255 28.1126C65.3585 27.7066 65.575 27.0842 65.575 26.2452C65.575 25.4874 65.345 24.892 64.8849 24.459C64.4519 24.026 63.8159 23.8095 62.977 23.8095H59.4046V28.6809ZM91.5931 45.2842C88.8868 45.2842 86.397 44.6482 84.1237 43.3762C81.8774 42.1042 80.0913 40.3451 78.7652 38.0989C77.4391 35.8526 76.776 33.3222 76.776 30.5077C76.776 27.6931 77.4391 25.1627 78.7652 22.9164C80.0913 20.6702 81.8774 18.9246 84.1237 17.6797C86.397 16.4077 88.8868 15.7717 91.5931 15.7717C94.2994 15.7717 96.7757 16.4077 99.022 17.6797C101.268 18.9246 103.041 20.6702 104.34 22.9164C105.666 25.1627 106.329 27.6931 106.329 30.5077C106.329 33.3222 105.666 35.8526 104.34 38.0989C103.041 40.3451 101.255 42.1042 98.9814 43.3762C96.7351 44.6482 94.2724 45.2842 91.5931 45.2842ZM91.5931 36.881C93.3793 36.881 94.7595 36.3127 95.7338 35.1761C96.7081 34.0123 97.1952 32.4562 97.1952 30.5077C97.1952 28.532 96.7081 26.9759 95.7338 25.8393C94.7595 24.6755 93.3793 24.0937 91.5931 24.0937C89.7799 24.0937 88.3861 24.6755 87.4119 25.8393C86.4376 26.9759 85.9504 28.532 85.9504 30.5077C85.9504 32.4562 86.4376 34.0123 87.4119 35.1761C88.3861 36.3127 89.7799 36.881 91.5931 36.881ZM192.565 45.2842C189.858 45.2842 187.369 44.6482 185.095 43.3762C182.849 42.1042 181.063 40.3451 179.737 38.0989C178.411 35.8526 177.748 33.3222 177.748 30.5077C177.748 27.6931 178.411 25.1627 179.737 22.9164C181.063 20.6702 182.849 18.9246 185.095 17.6797C187.369 16.4077 189.858 15.7717 192.565 15.7717C195.271 15.7717 197.747 16.4077 199.994 17.6797C202.24 18.9246 204.012 20.6702 205.312 22.9164C206.638 25.1627 207.301 27.6931 207.301 30.5077C207.301 33.3222 206.638 35.8526 205.312 38.0989C204.012 40.3451 202.226 42.1042 199.953 43.3762C197.707 44.6482 195.244 45.2842 192.565 45.2842ZM192.565 36.881C194.351 36.881 195.731 36.3127 196.705 35.1761C197.68 34.0123 198.167 32.4562 198.167 30.5077C198.167 28.532 197.68 26.9759 196.705 25.8393C195.731 24.6755 194.351 24.0937 192.565 24.0937C190.752 24.0937 189.358 24.6755 188.383 25.8393C187.409 26.9759 186.922 28.532 186.922 30.5077C186.922 32.4562 187.409 34.0123 188.383 35.1761C189.358 36.3127 190.752 36.881 192.565 36.881Z" fill="#2367D5"/>
<mask id="path-2-inside-1_386_3239" fill="white">
<path fill-rule="evenodd" clip-rule="evenodd" d="M143.009 25.7822C142.993 25.7481 142.978 25.7135 142.963 25.6785C142.948 25.7134 142.933 25.7479 142.918 25.7819C142.94 25.7822 142.962 25.7823 142.984 25.7823C142.992 25.7823 143 25.7823 143.009 25.7822ZM139.596 17.5859C140.968 17.9072 142.309 19.3157 142.963 21.2653C143.622 19.301 144.978 17.8859 146.361 17.5788C145.424 16.995 144.253 16.6484 142.984 16.6484C141.71 16.6484 140.535 16.9978 139.596 17.5859Z"/>
</mask>
<path fill-rule="evenodd" clip-rule="evenodd" d="M143.009 25.7822C142.993 25.7481 142.978 25.7135 142.963 25.6785C142.948 25.7134 142.933 25.7479 142.918 25.7819C142.94 25.7822 142.962 25.7823 142.984 25.7823C142.992 25.7823 143 25.7823 143.009 25.7822ZM139.596 17.5859C140.968 17.9072 142.309 19.3157 142.963 21.2653C143.622 19.301 144.978 17.8859 146.361 17.5788C145.424 16.995 144.253 16.6484 142.984 16.6484C141.71 16.6484 140.535 16.9978 139.596 17.5859Z" fill="url(#paint0_linear_386_3239)"/>
<path d="M143.009 25.7822L143.01 26.1205L143.534 26.1187L143.316 25.6418L143.009 25.7822ZM142.963 25.6785L143.274 25.5467L142.963 24.8107L142.651 25.5467L142.963 25.6785ZM142.918 25.7819L142.61 25.6415L142.394 26.1152L142.914 26.1202L142.918 25.7819ZM139.596 17.5859L139.416 17.2992L138.728 17.7302L139.519 17.9153L139.596 17.5859ZM142.963 21.2653L142.642 21.3728L142.963 22.3295L143.284 21.3728L142.963 21.2653ZM146.361 17.5788L146.435 17.9091L147.243 17.7296L146.54 17.2917L146.361 17.5788ZM143.316 25.6418C143.302 25.6105 143.288 25.5788 143.274 25.5467L142.651 25.8104C142.667 25.8482 142.684 25.8857 142.701 25.9227L143.316 25.6418ZM142.651 25.5467C142.638 25.5787 142.624 25.6103 142.61 25.6415L143.225 25.9224C143.242 25.8854 143.259 25.8481 143.274 25.8104L142.651 25.5467ZM142.984 25.444C142.963 25.444 142.942 25.4439 142.921 25.4437L142.914 26.1202C142.938 26.1204 142.961 26.1206 142.984 26.1206V25.444ZM143.007 25.4439C143 25.444 142.992 25.444 142.984 25.444V26.1206C142.993 26.1206 143.001 26.1205 143.01 26.1205L143.007 25.4439ZM139.519 17.9153C140.738 18.2006 142.011 19.4894 142.642 21.3728L143.284 21.1578C142.608 19.1421 141.199 17.6138 139.673 17.2566L139.519 17.9153ZM143.284 21.3728C143.92 19.4747 145.208 18.1814 146.435 17.9091L146.288 17.2486C144.748 17.5905 143.323 19.1274 142.642 21.1578L143.284 21.3728ZM142.984 16.9867C144.192 16.9867 145.3 17.3168 146.183 17.866L146.54 17.2917C145.547 16.6733 144.314 16.3101 142.984 16.3101V16.9867ZM139.775 17.8727C140.659 17.3194 141.771 16.9867 142.984 16.9867V16.3101C141.649 16.3101 140.411 16.6762 139.416 17.2992L139.775 17.8727Z" fill="url(#paint1_linear_386_3239)" mask="url(#path-2-inside-1_386_3239)"/>
<mask id="path-4-inside-2_386_3239" fill="white">
<path fill-rule="evenodd" clip-rule="evenodd" d="M142.946 27.6592C142.93 27.6933 142.915 27.7279 142.9 27.7629C142.886 27.728 142.871 27.6935 142.855 27.6595C142.877 27.6592 142.899 27.6591 142.922 27.6591C142.93 27.6591 142.938 27.6592 142.946 27.6592ZM139.533 35.8555C140.906 35.5342 142.247 34.1257 142.9 32.1761C143.559 34.1404 144.915 35.5555 146.299 35.8626C145.361 36.4464 144.191 36.793 142.922 36.793C141.647 36.793 140.473 36.4436 139.533 35.8555Z"/>
</mask>
<path fill-rule="evenodd" clip-rule="evenodd" d="M142.946 27.6592C142.93 27.6933 142.915 27.7279 142.9 27.7629C142.886 27.728 142.871 27.6935 142.855 27.6595C142.877 27.6592 142.899 27.6591 142.922 27.6591C142.93 27.6591 142.938 27.6592 142.946 27.6592ZM139.533 35.8555C140.906 35.5342 142.247 34.1257 142.9 32.1761C143.559 34.1404 144.915 35.5555 146.299 35.8626C145.361 36.4464 144.191 36.793 142.922 36.793C141.647 36.793 140.473 36.4436 139.533 35.8555Z" fill="url(#paint2_linear_386_3239)"/>
<path d="M142.946 27.6592L142.947 27.3209L143.471 27.3227L143.254 27.7996L142.946 27.6592ZM142.9 27.7629L143.212 27.8947L142.9 28.6307L142.589 27.8947L142.9 27.7629ZM142.855 27.6595L142.547 27.7999L142.331 27.3262L142.852 27.3212L142.855 27.6595ZM139.533 35.8555L139.354 36.1422L138.665 35.7112L139.456 35.5261L139.533 35.8555ZM142.9 32.1761L142.58 32.0686L142.9 31.1119L143.221 32.0686L142.9 32.1761ZM146.299 35.8626L146.372 35.5323L147.181 35.7118L146.478 36.1497L146.299 35.8626ZM143.254 27.7996C143.24 27.8309 143.226 27.8626 143.212 27.8947L142.589 27.631C142.605 27.5932 142.621 27.5558 142.638 27.5187L143.254 27.7996ZM142.589 27.8947C142.575 27.8627 142.561 27.8311 142.547 27.7999L143.163 27.519C143.18 27.556 143.196 27.5933 143.212 27.631L142.589 27.8947ZM142.922 27.9974C142.901 27.9974 142.879 27.9975 142.858 27.9977L142.852 27.3212C142.875 27.321 142.898 27.3208 142.922 27.3208V27.9974ZM142.945 27.9975C142.937 27.9974 142.929 27.9974 142.922 27.9974V27.3208C142.93 27.3208 142.939 27.3209 142.947 27.3209L142.945 27.9975ZM139.456 35.5261C140.675 35.2408 141.948 33.952 142.58 32.0686L143.221 32.2836C142.545 34.2993 141.137 35.8276 139.61 36.1849L139.456 35.5261ZM143.221 32.0686C143.858 33.9667 145.145 35.26 146.372 35.5323L146.226 36.1928C144.685 35.8509 143.26 34.314 142.58 32.2836L143.221 32.0686ZM142.922 36.4547C144.13 36.4547 145.238 36.1246 146.12 35.5754L146.478 36.1497C145.484 36.7681 144.252 37.1313 142.922 37.1313V36.4547ZM139.713 35.5687C140.597 36.122 141.709 36.4547 142.922 36.4547V37.1313C141.586 37.1313 140.349 36.7652 139.354 36.1422L139.713 35.5687Z" fill="url(#paint3_linear_386_3239)" mask="url(#path-4-inside-2_386_3239)"/>
<mask id="path-6-inside-3_386_3239" fill="white">
<path fill-rule="evenodd" clip-rule="evenodd" d="M143.161 26.8251C143.161 30.1621 144.517 32.7395 147.23 34.5573C149.916 36.375 153.728 37.311 158.666 37.3653H162.369V44.4871H174.578V16H156.672C154.04 16.0271 151.707 16.4883 149.672 17.3837C147.637 18.2518 146.05 19.4998 144.911 21.1277C143.744 22.7555 143.161 24.6546 143.161 26.8251ZM153.174 35.3106C157.496 35.3106 161 32.0069 161 27.9316C161 23.8564 157.496 20.5527 153.174 20.5527C148.851 20.5527 145.348 23.8564 145.348 27.9316C145.348 32.0069 148.851 35.3106 153.174 35.3106Z"/>
</mask>
<path fill-rule="evenodd" clip-rule="evenodd" d="M143.161 26.8251C143.161 30.1621 144.517 32.7395 147.23 34.5573C149.916 36.375 153.728 37.311 158.666 37.3653H162.369V44.4871H174.578V16H156.672C154.04 16.0271 151.707 16.4883 149.672 17.3837C147.637 18.2518 146.05 19.4998 144.911 21.1277C143.744 22.7555 143.161 24.6546 143.161 26.8251ZM153.174 35.3106C157.496 35.3106 161 32.0069 161 27.9316C161 23.8564 157.496 20.5527 153.174 20.5527C148.851 20.5527 145.348 23.8564 145.348 27.9316C145.348 32.0069 148.851 35.3106 153.174 35.3106Z" fill="url(#paint4_linear_386_3239)"/>
<path d="M147.23 34.5573L147.481 34.1869L147.479 34.1858L147.23 34.5573ZM158.666 37.3653L158.661 37.8125H158.666V37.3653ZM162.369 37.3653H162.817V36.9181H162.369V37.3653ZM162.369 44.4871H161.922V44.9343H162.369V44.4871ZM174.578 44.4871V44.9343H175.025V44.4871H174.578ZM174.578 16H175.025V15.5528H174.578V16ZM156.672 16V15.5528L156.667 15.5528L156.672 16ZM149.672 17.3837L149.848 17.795L149.852 17.793L149.672 17.3837ZM144.911 21.1277L145.274 21.3882L145.277 21.3841L144.911 21.1277ZM147.479 34.1858C144.893 32.4532 143.608 30.0169 143.608 26.8251H142.714C142.714 30.3074 144.141 33.0259 146.982 34.9288L147.479 34.1858ZM158.671 36.9181C153.778 36.8644 150.066 35.9361 147.481 34.1869L146.98 34.9277C149.767 36.814 153.678 37.7577 158.661 37.8125L158.671 36.9181ZM162.369 36.9181H158.666V37.8125H162.369V36.9181ZM162.817 44.4871V37.3653H161.922V44.4871H162.817ZM174.578 44.0399H162.369V44.9343H174.578V44.0399ZM174.131 16V44.4871H175.025V16H174.131ZM156.672 16.4472H174.578V15.5528H156.672V16.4472ZM149.852 17.793C151.823 16.9261 154.094 16.4738 156.677 16.4472L156.667 15.5528C153.986 15.5805 151.591 16.0506 149.492 16.9743L149.852 17.793ZM145.277 21.3841C146.363 19.8323 147.881 18.6342 149.848 17.795L149.497 16.9723C147.394 17.8695 145.737 19.1674 144.544 20.8712L145.277 21.3841ZM143.608 26.8251C143.608 24.7398 144.167 22.9336 145.274 21.3882L144.547 20.8672C143.322 22.5774 142.714 24.5694 142.714 26.8251H143.608ZM160.553 27.9316C160.553 31.7355 157.274 34.8633 153.174 34.8633V35.7578C157.718 35.7578 161.447 32.2783 161.447 27.9316H160.553ZM153.174 20.9999C157.274 20.9999 160.553 24.1278 160.553 27.9316H161.447C161.447 23.585 157.718 20.1055 153.174 20.1055V20.9999ZM145.795 27.9316C145.795 24.1278 149.073 20.9999 153.174 20.9999V20.1055C148.63 20.1055 144.9 23.585 144.9 27.9316H145.795ZM153.174 34.8633C149.073 34.8633 145.795 31.7355 145.795 27.9316H144.9C144.9 32.2783 148.63 35.7578 153.174 35.7578V34.8633Z" fill="url(#paint5_linear_386_3239)" mask="url(#path-6-inside-3_386_3239)"/>
<path fill-rule="evenodd" clip-rule="evenodd" d="M142.327 26.8251C142.327 30.1621 140.971 32.7395 138.258 34.5573C135.572 36.375 131.76 37.311 126.822 37.3653H123.119V44.4871H110.91V16H128.816C131.448 16.0271 133.781 16.4883 135.816 17.3837C137.851 18.2518 139.438 19.4998 140.577 21.1277C141.744 22.7555 142.327 24.6546 142.327 26.8251ZM132.315 35.3105C127.992 35.3105 124.489 32.0068 124.489 27.9316C124.489 23.8563 127.992 20.5527 132.315 20.5527C136.637 20.5527 140.141 23.8563 140.141 27.9316C140.141 32.0068 136.637 35.3105 132.315 35.3105Z" fill="url(#paint6_linear_386_3239)"/>
<path d="M158.761 28.6028C158.761 25.3919 155.958 22.7891 152.5 22.7891" stroke="url(#paint7_linear_386_3239)" stroke-width="1.34162"/>
<path d="M137.905 28.6028C137.905 25.3919 135.102 22.7891 131.645 22.7891" stroke="url(#paint8_linear_386_3239)" stroke-width="1.34162"/>
<defs>
<linearGradient id="paint0_linear_386_3239" x1="139.941" y1="16.5294" x2="146.568" y2="16.6857" gradientUnits="userSpaceOnUse">
<stop stop-color="#4963F7"/>
<stop offset="1" stop-color="#A24DEB"/>
</linearGradient>
<linearGradient id="paint1_linear_386_3239" x1="139.941" y1="16.5294" x2="146.568" y2="16.6857" gradientUnits="userSpaceOnUse">
<stop stop-color="#4963F7"/>
<stop offset="1" stop-color="#A24DEB"/>
</linearGradient>
<linearGradient id="paint2_linear_386_3239" x1="139.878" y1="36.912" x2="146.506" y2="36.7557" gradientUnits="userSpaceOnUse">
<stop stop-color="#4963F7"/>
<stop offset="1" stop-color="#A24DEB"/>
</linearGradient>
<linearGradient id="paint3_linear_386_3239" x1="139.878" y1="36.912" x2="146.506" y2="36.7557" gradientUnits="userSpaceOnUse">
<stop stop-color="#4963F7"/>
<stop offset="1" stop-color="#A24DEB"/>
</linearGradient>
<linearGradient id="paint4_linear_386_3239" x1="144.764" y1="15.6288" x2="175.517" y2="16.7088" gradientUnits="userSpaceOnUse">
<stop stop-color="#4963F7"/>
<stop offset="1" stop-color="#A24DEB"/>
</linearGradient>
<linearGradient id="paint5_linear_386_3239" x1="144.764" y1="15.6288" x2="175.517" y2="16.7088" gradientUnits="userSpaceOnUse">
<stop stop-color="#4963F7"/>
<stop offset="1" stop-color="#A24DEB"/>
</linearGradient>
<linearGradient id="paint6_linear_386_3239" x1="112.513" y1="15.6288" x2="143.267" y2="16.7088" gradientUnits="userSpaceOnUse">
<stop stop-color="#4963F7"/>
<stop offset="1" stop-color="#A24DEB"/>
</linearGradient>
<linearGradient id="paint7_linear_386_3239" x1="152.82" y1="22.7133" x2="158.948" y2="22.9235" gradientUnits="userSpaceOnUse">
<stop stop-color="#4963F7"/>
<stop offset="1" stop-color="#A24DEB"/>
</linearGradient>
<linearGradient id="paint8_linear_386_3239" x1="131.964" y1="22.7133" x2="138.093" y2="22.9235" gradientUnits="userSpaceOnUse">
<stop stop-color="#4963F7"/>
<stop offset="1" stop-color="#A24DEB"/>
</linearGradient>
</defs>
</svg>
