<svg width="350" height="16" viewBox="0 0 350 16" fill="none" xmlns="http://www.w3.org/2000/svg">
<path d="M34.3305 6.53854C71.8305 6.36854 105.6 2.59855 139.51 1.93855C170.63 1.32855 201.74 0.728552 232.87 0.798552C266 0.868552 299.12 0.908551 332.21 2.68855C336.52 2.91855 340.84 3.38855 345.11 4.02855C346.69 4.26855 349.42 4.10854 349 6.75854C348.63 9.06854 347.241 11.0185 344.201 10.7585C341.221 10.5085 338.21 10.5585 335.22 10.3885C306.29 8.72855 277.34 8.30855 248.37 8.48855C216.24 8.68855 184.1 8.46854 151.98 8.97854C113.53 9.58854 75.1605 11.9185 36.8405 15.1985C26.9205 16.0485 16.8805 15.4485 6.8905 15.4685C5.9105 15.4685 4.8805 15.2585 3.9705 14.9185C2.0405 14.1885 -0.00950479 12.9286 0.110495 10.8286C0.250495 8.50855 2.7705 8.69855 4.5105 8.57855C15.6305 7.77855 26.7505 7.05855 34.3205 6.54855L34.3305 6.53854Z" fill="url(#paint0_linear_1061_16085)"/>
<defs>
<linearGradient id="paint0_linear_1061_16085" x1="0.105469" y1="8.22427" x2="349.044" y2="8.22427" gradientUnits="userSpaceOnUse">
<stop stop-color="#FFD304"/>
<stop offset="1" stop-color="#FABE05"/>
</linearGradient>
</defs>
</svg>
